<?xml version="1.0" encoding="UTF-8"?>
<!DOCTYPE svg PUBLIC "-//W3C//DTD SVG 1.1//EN" "http://www.w3.org/Graphics/SVG/1.1/DTD/svg11.dtd">
<!-- Creator: CorelDRAW -->
<svg xmlns="http://www.w3.org/2000/svg" xml:space="preserve" width="175px" height="127px" style="shape-rendering:geometricPrecision; text-rendering:geometricPrecision; image-rendering:optimizeQuality; fill-rule:evenodd; clip-rule:evenodd"
viewBox="0 0 14.2851 10.4167"
 xmlns:xlink="http://www.w3.org/1999/xlink">
 <defs>
  <style type="text/css">
   <![CDATA[
    .fil0 {fill:#434242}
   ]]>
  </style>
 </defs>
 <g id="Layer_x0020_1">
  <metadata id="CorelCorpID_0Corel-Layer"/>
  <path class="fil0" d="M4.72953 1.18698c0.488173,0.0511492 1.01478,0.259648 1.40564,0.592183 -0.0918441,-0.273195 -0.10066,-0.542672 -0.0416335,-0.703298 0.0355229,-0.0958013 0.0619718,-0.20283 0.0408237,-0.315325 -0.0740274,-0.420458 -0.520493,-0.7603 -1.00596,-0.7603 -0.482632,0 -0.813161,0.339842 -0.738139,0.7603 0.0016381,0.00618429 0.00548488,0.0120373 0.00699414,0.0178351 0.00366272,0.00982861 -0.379506,0.0821259 -0.718777,0.38234 -0.0281606,0.0248292 -0.0753342,0.0798068 -0.129631,0.146012 0.310724,-0.106955 0.700003,-0.16843 1.18068,-0.119747z"/>
  <path class="fil0" d="M14.0461 6.06252c-0.0144852,-0.0326884 -0.0298539,-0.0646958 -0.0451674,-0.0965007 -0.0243138,-0.0528426 -0.300454,-0.44849 -0.614472,-0.885145 0,0 -1.16482,-1.7233 -2.00077,-2.8934 -0.196646,-0.200511 -0.715132,-0.72566 -1.80027,-0.613165 -0.613644,0.0638123 -1.33161,0.428667 -1.56398,0.987315 -0.031308,0.208315 -0.0623583,0.376818 -0.0893225,0.376818 -0.066021,0 -0.143306,-0.24301 -0.329626,-0.428152 -0.109477,-0.108961 -0.276471,-0.176804 -0.444662,-0.176804 -0.167491,0 -0.325964,0.0676407 -0.434815,0.177191 -0.186136,0.186007 -0.300159,0.427636 -0.365481,0.427636 -0.0124606,0 -0.0341424,-0.111814 -0.0598367,-0.264176 -0.174485,-0.623288 -0.953485,-1.03178 -1.60827,-1.09983 -1.05762,-0.109661 -1.57515,0.385506 -1.78233,0.595643 -0.832542,1.16798 -2.0075,2.91142 -2.0075,2.91142 -0.314129,0.435643 -0.589845,0.832671 -0.614343,0.885145 -0.0151846,0.0318233 -0.0294858,0.0639964 -0.0428483,0.0981388 -0.155141,0.371334 -0.242439,0.777307 -0.242439,1.20351 0,1.74112 1.34698,3.14858 3.0876,3.14858 1.7381,0 3.08245,-1.40728 3.08245,-3.14858l0 -0.482632c0,-0.267655 0.203529,-0.656308 0.446797,-0.746624 0.136993,-0.0518487 0.325853,-0.0798252 0.49397,-0.0798252 0.168117,0 0.404961,0.0281606 0.541843,0.0798252 0.243654,0.0905005 0.463803,0.47897 0.463803,0.746624 0,0.267323 0,0.482632 0,0.482632 0,1.74112 1.34578,3.14858 3.08307,3.14858 1.73828,0 3.08559,-1.40728 3.08559,-3.14858 0.000128839,-0.426201 -0.0850524,-0.832174 -0.238997,-1.20564zm-10.8936 3.47474c-1.25283,0 -2.26761,-1.01798 -2.26761,-2.26879 0,-1.24998 1.01478,-2.26678 2.26761,-2.26678 1.24928,0 2.26645,1.0168 2.26645,2.26678 0.000312896,1.25048 -1.01717,2.26879 -2.26645,2.26879zm3.97477 -4.54337c-0.468479,0 -0.858825,-0.338645 -0.599177,-0.599177 0.154147,-0.153319 0.365481,-0.248494 0.600686,-0.248494 0.233181,0 0.44433,0.0949915 0.597152,0.248494 0.259759,0.259648 -0.13103,0.599177 -0.598662,0.599177zm4.10287 4.39939c-1.20211,0 -2.18212,-0.980137 -2.18212,-2.18144 0,-1.20281 0.981646,-2.18142 2.18212,-2.18142 1.20364,0 2.17998,0.978609 2.17998,2.18142 -5.52169e-005,1.2013 -0.976548,2.18144 -2.17998,2.18144z"/>
  <path class="fil0" d="M8.15161 1.76863c0.389979,-0.326479 0.910784,-0.531499 1.3936,-0.581968 0.484344,-0.0489958 0.875133,0.0139883 1.18681,0.12214 -0.0600208,-0.074009 -0.111299,-0.133846 -0.140969,-0.159485 -0.333473,-0.290827 -0.706003,-0.361634 -0.702985,-0.371518 0.00233752,-0.00585299 0.00366272,-0.0118532 0.00517198,-0.0178351 0.0745244,-0.420145 -0.258507,-0.759968 -0.744673,-0.759968 -0.483129,0 -0.93762,0.339823 -1.01246,0.760281 -0.0204671,0.112201 -0.0098102,0.219156 0.0243322,0.315344 0.0588244,0.159172 0.0778558,0.423992 -0.0088347,0.693009z"/>
 </g>
</svg>
