<?xml version="1.0" encoding="UTF-8"?>
<!DOCTYPE svg PUBLIC "-//W3C//DTD SVG 1.1//EN" "http://www.w3.org/Graphics/SVG/1.1/DTD/svg11.dtd">
<!-- Creator: CorelDRAW -->
<svg xmlns="http://www.w3.org/2000/svg" xml:space="preserve" width="175px" height="218px" style="shape-rendering:geometricPrecision; text-rendering:geometricPrecision; image-rendering:optimizeQuality; fill-rule:evenodd; clip-rule:evenodd"
viewBox="0 0 13.8364 17.273"
 xmlns:xlink="http://www.w3.org/1999/xlink">
 <defs>
  <style type="text/css">
   <![CDATA[
    .fil0 {fill:#434242}
   ]]>
  </style>
 </defs>
 <g id="Layer_x0020_1">
  <metadata id="CorelCorpID_0Corel-Layer"/>
  <path class="fil0" d="M2.30578 6.4869c0.488837,0 0.88567,-0.56721 0.88567,-1.05648 0,-0.489054 -0.396833,-0.885888 -0.88567,-0.885888 -0.489272,0 -0.885652,0.39638 -0.885652,0.885888 0,0.489652 0.39638,1.05648 0.885652,1.05648z"/>
  <path class="fil0" d="M1.8847 13.3491l0.251524 -3.13296c0.05211,0.0231459 0.109639,0.0362685 0.169507,0.0362685 0.0602844,0 0.117379,-0.013177 0.169924,-0.0362685l0.252067 3.13296c0.0174002,0.220783 0.201661,0.386611 0.418112,0.386611 0.0119989,0 0.023164,-0.00045313 0.034166,-0.00139564 0.232111,-0.0181071 0.404337,-0.220729 0.385288,-0.45275l-0.278548 -3.46657 0 -2.39095c0.034456,0.0101864 0.0672989,0.0195027 0.0970061,0.0282753l0.255402 2.29739c0.0195027,0.179458 0.171809,0.311445 0.347261,0.311445 0.0133945,0 0.0264991,-0.00045313 0.0389329,-0.00181252 0.192635,-0.0212971 0.330894,-0.194882 0.309597,-0.387064l-0.279889 -2.5227c-0.0017944,-0.0167477 -0.0106395,-0.0300697 -0.0154064,-0.0464549 -0.00634382,-0.0253753 -0.0120714,-0.0505512 -0.0240703,-0.0740777 -0.00975136,-0.0185965 -0.0229284,-0.0317916 -0.034456,-0.0473974 -0.0156421,-0.020844 -0.0301603,-0.041253 -0.0500981,-0.0584357 -0.0158777,-0.013612 -0.0349273,-0.0212971 -0.0518925,-0.0310304 -0.018089,-0.010857 -0.0326072,-0.0251578 -0.0534512,-0.0326072 -0.0314835,-0.0115458 -0.736572,-0.264048 -1.38457,-0.29738l-0.088596 0.178116 -0.00221128 3.62504e-005 0.235736 1.83735 -0.280343 0.489507 -0.280324 -0.489507 0.235682 -1.83735 -0.00266441 0 -0.0891035 -0.178116c-0.647451,0.0333323 -1.35256,0.285744 -1.38359,0.297362 -0.020844,0.00752196 -0.0362685,0.0217502 -0.0539587,0.0330604 -0.0176358,0.00976949 -0.0366854,0.017654 -0.0514212,0.0305953 -0.0208621,0.018089 -0.0358154,0.0389329 -0.05211,0.0606469 -0.0106395,0.0145183 -0.023164,0.0279128 -0.0319366,0.0446786 -0.0124339,0.0240522 -0.0176358,0.0500981 -0.0249222,0.0766153 -0.0043138,0.0151889 -0.013177,0.0281303 -0.0149714,0.0448599l-0.280324 2.52265c-0.020844,0.192218 0.116944,0.365803 0.309579,0.387082 0.012887,0.00139564 0.026064,0.0017944 0.0389511,0.0017944 0.175887,0 0.327758,-0.13235 0.347623,-0.311445l0.254714 -2.29732c0.030396,-0.00886323 0.0632026,-0.0181796 0.0974411,-0.0283659l0 2.3914 -0.278784 3.46657c-0.0189952,0.231115 0.153647,0.43428 0.38507,0.452369 0.0117633,0.00045313 0.0229284,0.00141377 0.0344741,0.00141377 0.217865,-0.00045313 0.401709,-0.166317 0.41958,-0.3871z"/>
  <path class="fil0" d="M6.91843 4.21446c0.489272,0 0.885888,-0.566848 0.885888,-1.0559 0,-0.489272 -0.396616,-0.886105 -0.885888,-0.886105 -0.48929,0 -0.886105,0.396833 -0.886105,0.886105 0,0.488619 0.396815,1.0559 0.886105,1.0559z"/>
  <path class="fil0" d="M6.49644 11.0769l0.252502 -3.1332c0.05211,0.0229284 0.109186,0.0362685 0.169507,0.0362685 0.0600669,0 0.117179,-0.0133945 0.169743,-0.0362685l0.252049 3.1332c0.0176358,0.219804 0.202169,0.387064 0.418366,0.387064 0.011292,0 0.0226928,-0.00090626 0.0340029,-0.0017944 0.232021,-0.0190496 0.404283,-0.221671 0.386194,-0.452369l-0.279219 -3.46703 -5.43756e-005 -2.39079c0.034456,0.00976949 0.0670633,0.0195027 0.0970061,0.0287285l0.255674 2.29692c0.0200284,0.179258 0.171374,0.311826 0.348167,0.311826 0.0126514,0 0.0258284,-0.00045313 0.0381173,-0.00181252 0.193088,-0.0218046 0.330803,-0.194937 0.310032,-0.387064l-0.280633 -2.5222c-0.0017944,-0.0170558 -0.0104039,-0.0305772 -0.0149714,-0.0465274 -0.0063257,-0.0258284 -0.0117633,-0.0514393 -0.0239615,-0.0750384 -0.00955198,-0.0176358 -0.0227109,-0.0310304 -0.0344741,-0.046908 -0.0158596,-0.020844 -0.0303778,-0.0412348 -0.0503337,-0.0584357 -0.0154064,-0.0131589 -0.0340029,-0.020844 -0.0520918,-0.031556 -0.0177265,-0.0106395 -0.0331148,-0.0247047 -0.0535237,-0.0321541 -0.0312479,-0.0120714 -0.736119,-0.264048 -1.38381,-0.297978l-0.0897742 0.177917 -0.0017944 3.62504e-005 0.235682 1.83713 -0.280324 0.489725 -0.280415 -0.489707 0.236171 -1.83713 -0.00275503 -1.81252e-005 -0.0890129 -0.178352c-0.647451,0.0335135 -1.35209,0.285998 -1.38357,0.297978 -0.0208621,0.00750384 -0.0362685,0.021569 -0.0539769,0.0326072 -0.0176358,0.00976949 -0.0360329,0.017944 -0.0514212,0.0305772 -0.020844,0.0176358 -0.0358154,0.0390054 -0.0514212,0.0603026 -0.0113101,0.0154064 -0.0238346,0.0282753 -0.0326072,0.0450955 -0.0124339,0.0235084 -0.0181796,0.0496449 -0.0249403,0.0759265 -0.00429567,0.0158777 -0.0126514,0.0290366 -0.0145183,0.0460018l-0.280324 2.5222c-0.0212971,0.192635 0.117379,0.365803 0.309597,0.387064 0.013612,0.00135939 0.0260459,0.00181252 0.0394405,0.00181252 0.175815,0 0.328121,-0.132568 0.347623,-0.311808l0.254949 -2.29715c0.0301603,-0.00909885 0.0630576,-0.0188321 0.097423,-0.0285835l0 2.39071 -0.278548 3.46703c-0.0189952,0.231115 0.153647,0.433736 0.385288,0.451825 0.0110926,0.000960636 0.0221853,0.0018669 0.0338035,0.0018669 0.215835,0.00112376 0.40015,-0.166136 0.417134,-0.38594z"/>
  <path class="fil0" d="M11.5306 1.94201c0.489054,0 0.885652,-0.566757 0.885652,-1.05612 0,-0.489054 -0.396598,-0.885888 -0.885652,-0.885888 -0.489961,0 -0.886558,0.39638 -0.886558,0.885888 0,0.489707 0.396598,1.05612 0.886558,1.05612z"/>
  <path class="fil0" d="M11.1086 8.80416l0.252502 -3.13341c0.05211,0.0232909 0.109277,0.0366854 0.169507,0.0366854 0.0598494,0 0.117379,-0.0129414 0.169072,-0.0366854l0.252502 3.13341c0.0176358,0.22033 0.201208,0.386611 0.417442,0.386611 0.0117633,0 0.0226203,-0.00045313 0.0343835,-0.00090626 0.231658,-0.0190315 0.404355,-0.221744 0.385306,-0.452876l-0.279146 -3.46674 -5.43756e-005 -2.39061c0.0353623,0.00975136 0.0679695,0.0194846 0.0978217,0.0282753l0.254804 2.29737c0.0199377,0.178787 0.172171,0.311445 0.348076,0.311445 0.013612,0 0.0259009,-0.00045313 0.0389873,-0.0017944 0.192635,-0.0217502 0.33035,-0.194955 0.309506,-0.386629l-0.28056 -2.5222c-0.0017944,-0.0171827 -0.010857,-0.0305772 -0.0154064,-0.0466724 -0.00641632,-0.0255928 -0.0113101,-0.0512037 -0.023599,-0.0743496 -0.00998699,-0.0181796 -0.0226203,-0.0317191 -0.0353804,-0.046908 -0.0149533,-0.020844 -0.0294716,-0.0412348 -0.0494274,-0.0585263 -0.0154064,-0.0133764 -0.034456,-0.0212971 -0.0520918,-0.0314654 -0.0181071,-0.0108751 -0.0326072,-0.0251578 -0.0534694,-0.0322447 -0.0317916,-0.0119989 -0.736173,-0.264501 -1.38433,-0.297743l-0.0897742 0.178116 -0.00174002 1.81252e-005 0.235718 1.83713 -0.280179 0.489725 -0.280107 -0.489725 0.235682 -1.83713 -0.00266441 0 -0.0887954 -0.178116c-0.648212,0.0333504 -1.35306,0.285762 -1.38435,0.297743 -0.020844,0.00752196 -0.0353623,0.0212971 -0.0535056,0.0326072 -0.018089,0.0101864 -0.0361779,0.0181796 -0.0507506,0.0305953 -0.0212971,0.0181615 -0.0362685,0.0394405 -0.05211,0.0602844 -0.0113101,0.0149714 -0.0235084,0.0283659 -0.0330604,0.0455486 -0.0122889,0.0231459 -0.0181615,0.0492099 -0.024469,0.075709 -0.00411442,0.0156421 -0.0126695,0.0292541 -0.0154246,0.0453311l-0.279654 2.5222c-0.0212971,0.191747 0.116962,0.36535 0.309597,0.386611 0.0126514,0.00135939 0.0253753,0.0017944 0.0389329,0.0017944 0.175398,0 0.327686,-0.132568 0.347623,-0.311445l0.255257 -2.29737c0.0298522,-0.0084101 0.0625501,-0.0181796 0.0970061,-0.0282753l0 2.39073 -0.27824 3.46674c-0.0190496,0.232111 0.153194,0.433827 0.385306,0.452876 0.0117451,0.00045313 0.0221671,0.00090626 0.034456,0.00090626 0.217593,7.25008e-005 0.401582,-0.166317 0.418801,-0.386647z"/>
  <path class="fil0" d="M12.3706 9.19088l-1.67977 0 -1.46671 0 0 2.27223 -1.46548 0 -1.68073 0 -1.46586 0 0 2.27214 -1.46611 0 -1.67979 0 -1.46611 0 0 3.53775 4.61196 0 4.61203 0 4.61241 0 0 -8.08212 -1.46584 0zm-9.92611 7.2971l0 0.314563 -0.302129 0 0 -0.292849c-0.206428,-0.00953386 -0.407473,-0.0652145 -0.524417,-0.133238l0.0927467 -0.360347c0.12916,0.0702714 0.31159,0.135558 0.51191,0.135558 0.176105,0 0.296184,-0.068042 0.296184,-0.191312 0,-0.117379 -0.0983292,-0.191239 -0.326852,-0.268289 -0.329988,-0.111506 -0.555012,-0.265589 -0.555012,-0.564763 0,-0.271479 0.190786,-0.484161 0.521299,-0.549429l0 -0.292849 0.30251 1.81252e-005 0 0.271099c0.206047,0.00953386 0.345847,0.0525631 0.446931,0.101991l-0.0895566 0.348584c-0.0802403,-0.0339666 -0.222342,-0.105199 -0.444176,-0.105199 -0.201045,0 -0.264991,0.0866566 -0.264991,0.173132 0,0.101537 0.107627,0.166371 0.370316,0.265136 0.367126,0.129595 0.515118,0.29961 0.515118,0.57707 -0.000290003,0.274253 -0.194719,0.509481 -0.549883,0.571125zm4.61296 -1.07154l0 0.314563 -0.302383 0 0 -0.293211c-0.206428,-0.00953386 -0.407473,-0.064852 -0.524435,-0.132803l0.0922392 -0.360873c0.129668,0.0707246 0.311572,0.136012 0.511892,0.136012 0.17634,0 0.296021,-0.0679877 0.296021,-0.191239 0,-0.117814 -0.0978761,-0.191765 -0.326634,-0.268797 -0.329988,-0.110981 -0.554994,-0.265136 -0.554994,-0.56422 0,-0.272005 0.190768,-0.485031 0.521208,-0.549429l0 -0.292849 0.302419 0 0 0.271461c0.206645,0.00953386 0.346264,0.0525631 0.447801,0.101991l-0.0892304 0.348149c-0.0806934,-0.0334954 -0.222487,-0.105181 -0.444702,-0.105181 -0.20099,0 -0.265299,0.0870916 -0.265299,0.172679 0,0.101991 0.108099,0.166299 0.370552,0.265136 0.366256,0.130483 0.514883,0.29999 0.514883,0.577433 -7.25008e-005,0.27476 -0.194937,0.509536 -0.549339,0.57118zm4.61234 -1.07147l0 0.315397 -0.301857 0 0 -0.29323c-0.207153,-0.00953386 -0.407926,-0.0647614 -0.524924,-0.132785l0.0928917 -0.360782c0.129668,0.0701808 0.311445,0.135033 0.511765,0.135033 0.17634,0 0.29642,-0.0679695 0.29642,-0.191221 0,-0.117923 -0.0983292,-0.191312 -0.32687,-0.268344 -0.33035,-0.111506 -0.555211,-0.265136 -0.555211,-0.564763 0,-0.271099 0.190405,-0.484088 0.521281,-0.549357l0 -0.293665 0.302328 -1.81252e-005 0 0.272367c0.206283,0.0086276 0.345865,0.0520918 0.447366,0.101537l-0.0887954 0.348511c-0.0806753,-0.0343654 -0.222559,-0.105108 -0.444231,-0.105108 -0.201208,0 -0.265589,0.086131 -0.265589,0.172244 0,0.1019 0.107863,0.166752 0.370787,0.265534 0.367108,0.129577 0.514883,0.299175 0.514883,0.577052 -0.00090626,0.275993 -0.195788,0.510859 -0.550245,0.571597z"/>
 </g>
</svg>
