<?xml version="1.0" encoding="UTF-8"?>
<!DOCTYPE svg PUBLIC "-//W3C//DTD SVG 1.1//EN" "http://www.w3.org/Graphics/SVG/1.1/DTD/svg11.dtd">
<!-- Creator: CorelDRAW -->
<svg xmlns="http://www.w3.org/2000/svg" xml:space="preserve" width="175px" height="175px" style="shape-rendering:geometricPrecision; text-rendering:geometricPrecision; image-rendering:optimizeQuality; fill-rule:evenodd; clip-rule:evenodd"
viewBox="0 0 14.3519 14.3519"
 xmlns:xlink="http://www.w3.org/1999/xlink">
 <defs>
  <style type="text/css">
   <![CDATA[
    .fil0 {fill:#434242}
   ]]>
  </style>
 </defs>
 <g id="Layer_x0020_1">
  <metadata id="CorelCorpID_0Corel-Layer"/>
  <path class="fil0" d="M13.8393 9.04667c-0.283082,0 -0.51258,0.22948 -0.51258,0.512561l1.86311e-005 3.7675 -3.76746 0c-0.283082,0 -0.51258,0.22948 -0.51258,0.512561 0,0.2831 0.229498,0.51258 0.51258,0.51258l4.28002 -1.86311e-005c0.283063,0 0.512561,-0.22948 0.512561,-0.512561l0 -4.28006c0,-0.283082 -0.22948,-0.512561 -0.512561,-0.512561z"/>
  <path class="fil0" d="M4.7926 13.3267l-3.76746 0 0 -3.7675c0,-0.283082 -0.22948,-0.51258 -0.512561,-0.51258 -0.2831,0 -0.51258,0.229498 -0.51258,0.51258l1.86311e-005 4.28006c0,0.283063 0.22948,0.512561 0.512561,0.512561l4.28002 0c0.283082,0 0.51258,-0.22948 0.51258,-0.512561 0,-0.283082 -0.229461,-0.512561 -0.51258,-0.512561z"/>
  <path class="fil0" d="M13.8393 1.86311e-005l-4.28002 0c-0.283082,0 -0.51258,0.22948 -0.51258,0.512561 0,0.283082 0.229498,0.51258 0.51258,0.51258l3.76746 -1.86311e-005 0 3.7675c0,0.283082 0.22948,0.51258 0.512561,0.51258 0.2831,0 0.51258,-0.229498 0.51258,-0.51258l-1.86311e-005 -4.28006c0,-0.283082 -0.22948,-0.512561 -0.512561,-0.512561z"/>
  <path class="fil0" d="M0.51258 5.3052c0.283082,0 0.51258,-0.22948 0.51258,-0.512561l-1.86311e-005 -3.7675 3.76746 0c0.283082,0 0.51258,-0.22948 0.51258,-0.512561 0,-0.2831 -0.229498,-0.51258 -0.51258,-0.51258l-4.28002 1.86311e-005c-0.283082,0 -0.512561,0.22948 -0.512561,0.512561l0 4.28006c0,0.283082 0.22948,0.512561 0.512561,0.512561z"/>
  <path class="fil0" d="M4.32727 5.07209c0.01606,1.50603 0.65604,2.41968 1.6995,2.4037 0,0 1.69892,0.0688793 1.69892,-2.4037 0,-1.09968 -0.574007,-1.67032 -1.69892,-1.67032 -1.10116,0 -1.71067,0.570672 -1.6995,1.67032z"/>
  <path class="fil0" d="M7.38533 7.96248l-0.0511425 -0.0204011 -0.397458 -0.334988c-0.105024,-0.0887401 -0.260109,-0.0821447 -0.35742,0.0147l-0.5526 0.549581 -0.554351 -0.549786c-0.0974036,-0.0966211 -0.252284,-0.102863 -0.357159,-0.014495l-0.397514 0.334988 -1.69748 0.676963c-0.546656,0.217612 -0.546116,2.15342 -0.593066,2.33115l6.79718 0c-0.213271,-0.235293 -0.531677,-0.607208 -0.850735,-1.05639 -0.368934,-0.519306 -0.789606,-1.21917 -0.988252,-1.93132z"/>
  <path class="fil0" d="M9.82519 10.9501c0.0332193,0 0.0647805,-0.0136007 0.0875477,-0.0378771 0.193168,-0.205352 0.57451,-0.630459 0.956765,-1.16871 0.481466,-0.677689 1.05519,-1.67151 1.05519,-2.5574 0,-1.15765 -0.941823,-2.09939 -2.09947,-2.09939 -1.15766,0 -2.09951,0.941786 -2.09951,2.09939 0,0.886432 0.57451,1.88089 1.0565,2.55925 0.382069,0.537881 0.762591,0.961889 0.955461,1.16687 0.0226368,0.0242764 0.054347,0.0378771 0.0875105,0.0378771zm-1.28193 -3.79129c0,-0.706828 0.575162,-1.28197 1.28203,-1.28197 0.70681,0 1.28195,0.575143 1.28195,1.28197 0,0.706754 -0.575143,1.28206 -1.28195,1.28206 -0.706866,0 -1.28203,-0.575311 -1.28203,-1.28206z"/>
 </g>
</svg>
