<?xml version="1.0" encoding="UTF-8"?>
<!DOCTYPE svg PUBLIC "-//W3C//DTD SVG 1.1//EN" "http://www.w3.org/Graphics/SVG/1.1/DTD/svg11.dtd">
<!-- Creator: CorelDRAW -->
<svg xmlns="http://www.w3.org/2000/svg" xml:space="preserve" width="175px" height="205px" style="shape-rendering:geometricPrecision; text-rendering:geometricPrecision; image-rendering:optimizeQuality; fill-rule:evenodd; clip-rule:evenodd"
viewBox="0 0 10.3468 12.1187"
 xmlns:xlink="http://www.w3.org/1999/xlink">
 <defs>
  <style type="text/css">
   <![CDATA[
    .str0 {stroke:#FEFEFE;stroke-width:0.0130785}
    .fil0 {fill:#434242}
   ]]>
  </style>
 </defs>
 <g id="Layer_x0020_1">
  <metadata id="CorelCorpID_0Corel-Layer"/>
  <circle class="fil0 str0" cx="5.26037" cy="1.87249" r="1.86592"/>
  <path class="fil0 str0" d="M9.87025 8.35568c-0.77656,-0.291607 -1.28015,-1.21086 -1.76716,-2.09964 -0.458693,-0.837233 -0.892087,-1.62821 -1.60154,-2.0633 -0.0310658,-0.0191201 -0.0638652,-0.032662 -0.0965272,-0.0465816 -0.207832,-0.138852 -0.441495,-0.240975 -0.679655,-0.299399l-0.464923 0.467875 -0.450712 -0.472973c-0.00149322,0.000291778 -0.00305509,0.000480576 -0.00454831,0.000892499 -0.220842,0.0528119 -0.437651,0.143898 -0.634138,0.266651 -0.0721379,0.0173694 -0.143383,0.042737 -0.209995,0.0836889 -0.698706,0.428296 -1.13715,1.23898 -1.60147,2.09717 -0.512363,0.947267 -1.04223,1.92653 -1.83257,2.15875 -0.383877,0.112712 -0.603741,0.515349 -0.491063,0.899107 0.0925624,0.315807 0.381509,0.520464 0.694742,0.520464 0.067521,0 0.136175,-0.00947422 0.204279,-0.029504 0.0636764,-0.0186567 0.124435,-0.0412609 0.185348,-0.063745 -0.118531,0.127782 -0.192728,0.289925 -0.218096,0.499765 -0.0415355,0.34332 0.065427,0.680015 0.301493,0.94816 0.665547,0.756513 2.48595,0.881754 3.51188,0.889152 0.00209394,0 0.00415355,0 0.00623033,0 0.217598,0 0.415767,-0.0820241 0.566943,-0.215933 0.151158,0.133909 0.349448,0.215933 0.566926,0.215933 0.00209394,0 0.00413639,0 0.00611018,0 1.02593,-0.00739744 2.84638,-0.132639 3.5119,-0.889152 0.236135,-0.268213 0.343149,-0.604943 0.301596,-0.948091 -0.0291264,-0.240494 -0.121775,-0.416848 -0.269294,-0.550552 0.0695634,0.021214 0.139831,0.0341209 0.209497,0.0341209 0.293203,0 0.569328,-0.179289 0.678351,-0.470141 0.140569,-0.374558 -0.0489673,-0.792299 -0.423594,-0.932713zm-6.51962 -0.860438l0 1.7397c-0.645792,0.0509068 -1.17829,0.0954459 -1.58063,0.201224 0.687344,-0.474071 1.16744,-1.20611 1.58063,-1.94093zm3.8196 1.76816l0 -1.70658c0.418994,0.722272 0.917557,1.43437 1.64884,1.88635 -0.415475,-0.105281 -0.970575,-0.139642 -1.64884,-0.17977z"/>
 </g>
</svg>
