<?xml version="1.0" encoding="UTF-8"?>
<!DOCTYPE svg PUBLIC "-//W3C//DTD SVG 1.1//EN" "http://www.w3.org/Graphics/SVG/1.1/DTD/svg11.dtd">
<!-- Creator: CorelDRAW -->
<svg xmlns="http://www.w3.org/2000/svg" xml:space="preserve" width="175px" height="146px" style="shape-rendering:geometricPrecision; text-rendering:geometricPrecision; image-rendering:optimizeQuality; fill-rule:evenodd; clip-rule:evenodd"
viewBox="0 0 13.157 10.9921"
 xmlns:xlink="http://www.w3.org/1999/xlink">
 <defs>
  <style type="text/css">
   <![CDATA[
    .fil0 {fill:#434242}
   ]]>
  </style>
 </defs>
 <g id="Layer_x0020_1">
  <metadata id="CorelCorpID_0Corel-Layer"/>
  <circle class="fil0" cx="2.35759" cy="1.13748" r="1.13744"/>
  <path class="fil0" d="M3.11411 2.55182c-0.0190205,-0.0116783 -0.0389566,-0.0199361 -0.0590136,-0.0285566 -0.126734,-0.0844951 -0.268999,-0.146722 -0.414062,-0.182379l-0.283407 0.285204 -0.274614 -0.288296c-0.00095016,0.000190032 -0.00224583,0.000190032 -0.00295413,0.000518269 -0.210072,0.0501857 -0.414183,0.156776 -0.574139,0.306539 -0.877032,0.58979 -1.25022,1.37134 -1.50117,3.08095 -0.0354669,0.241151 0.131433,0.465648 0.372705,0.500924 0.0219919,0.00328237 0.0435346,0.00476808 0.06487,0.00476808 0.215358,0 0.404112,-0.157951 0.436054,-0.377559 0.0904207,-0.615134 0.194886,-1.06466 0.315246,-1.40423l0 1.39064c0,0.118787 0.0230284,0.229472 0.0634707,0.331502 -0.00316144,0.0230284 -0.00542455,0.0462987 -0.00542455,0.0699663l0.000449167 4.22837c0,0.288175 0.233618,0.521949 0.521828,0.521949 0.288399,-0.000120929 0.521811,-0.233722 0.521811,-0.522018l-0.000310961 -3.62885c0.0209035,0.000967436 0.0413924,0.00245314 0.062175,0.00245314 0.00412888,0 0.00818865,-0.000449167 0.0123175,-0.000449167l-0.000120929 3.62673c0,0.288296 0.233411,0.522018 0.521828,0.522018 0.288175,0 0.521828,-0.233722 0.521828,-0.521949l0.000190032 -4.20258c0.0683597,-0.126613 0.108163,-0.270035 0.108163,-0.427227l0 -1.52069c0.141297,0.352596 0.261847,0.837281 0.363998,1.53458 0.0322536,0.219401 0.220696,0.377559 0.436365,0.377559 0.0212318,0 0.0427745,-0.00169301 0.0644381,-0.00478535 0.241151,-0.035225 0.408241,-0.259515 0.372895,-0.500907 -0.263903,-1.80097 -0.663885,-2.57214 -1.64542,-3.17419zm-0.758919 2.32544l-0.274372 -0.375348 0.212387 -1.42025c0.0212145,-0.0570787 0.0303706,-0.11782 0.026639,-0.179079l0.035346 -0.234258 0.00528635 3.45513e-005 0.274372 1.83358 -0.274372 0.375348 -0.00528635 -3.45513e-005z"/>
  <circle class="fil0" cx="10.7506" cy="1.13748" r="1.13744"/>
  <path class="fil0" d="M13.1523 5.7258c-0.263972,-1.80067 -0.664041,-2.57184 -1.64526,-3.1739 -0.0190896,-0.0116783 -0.0391466,-0.0199361 -0.0593245,-0.0285739 -0.126423,-0.0844779 -0.268878,-0.146705 -0.413872,-0.182379l-0.283303 0.285204 -0.274942 -0.288279c-0.000967436,0.000190032 -0.00179667,0.000190032 -0.00264317,0.000518269 -0.210262,0.0501857 -0.414512,0.156776 -0.574139,0.306539 -0.876877,0.589738 -1.25041,1.37134 -1.50124,3.08083 -0.035346,0.241151 0.131433,0.465648 0.372774,0.500907 0.02175,0.00329965 0.0433273,0.00478535 0.0644381,0.00478535 0.215669,0 0.40444,-0.157951 0.436365,-0.377559 0.0902307,-0.615134 0.194576,-1.06466 0.315056,-1.40423l0 1.39064c0,0.118787 0.0231494,0.229472 0.0637126,0.331502 -0.00317872,0.0230284 -0.00554548,0.0462814 -0.00554548,0.0699663l0.000449167 4.22837c0,0.288175 0.233532,0.521949 0.521932,0.521949 0.288296,-0.000120929 0.521828,-0.233739 0.521828,-0.522035l-0.000518269 -3.62883c0.0208171,0.000967436 0.0415997,0.00243586 0.0625033,0.00243586 0.00392157,0 0.00806772,-0.000431891 0.0119893,-0.000431891l-0.000190032 3.62671c0,0.288296 0.233722,0.522035 0.521932,0.522035 0.288296,0 0.521949,-0.233739 0.521949,-0.521949l0.000120929 -4.20258c0.0684806,-0.126613 0.108353,-0.270035 0.108353,-0.427227l-6.91026e-005 -1.52065c0.141297,0.352596 0.26164,0.837281 0.363998,1.53458 0.0321672,0.219401 0.220765,0.377559 0.436158,0.377559 0.0212318,0 0.0427745,-0.00169301 0.0646282,-0.00478535 0.241237,-0.035536 0.408206,-0.259843 0.37286,-0.501114zm-2.40467 -0.848545l-0.274285 -0.375348 0.212629 -1.42025c0.0211454,-0.0570787 0.0302496,-0.11782 0.02676,-0.179079l0.0348968 -0.234258 0.00542455 3.45513e-005 0.274164 1.83358 -0.274164 0.375348 -0.00542455 -3.45513e-005z"/>
  <polygon class="fil0" points="6.86833,3.50925 5.2657,3.50925 5.2657,4.12086 6.86833,4.12086 6.86833,4.70182 7.90338,3.81496 6.86833,2.92829 "/>
  <polygon class="fil0" points="6.30044,4.42572 5.26561,5.31247 6.30044,6.19933 6.30044,5.61816 7.90326,5.61816 7.90326,5.00667 6.30044,5.00667 "/>
 </g>
</svg>
