<?xml version="1.0" encoding="UTF-8"?>
<!DOCTYPE svg PUBLIC "-//W3C//DTD SVG 1.1//EN" "http://www.w3.org/Graphics/SVG/1.1/DTD/svg11.dtd">
<!-- Creator: CorelDRAW -->
<svg xmlns="http://www.w3.org/2000/svg" xml:space="preserve" width="175px" height="167px" style="shape-rendering:geometricPrecision; text-rendering:geometricPrecision; image-rendering:optimizeQuality; fill-rule:evenodd; clip-rule:evenodd"
viewBox="0 0 12.6489 12.0938"
 xmlns:xlink="http://www.w3.org/1999/xlink">
 <defs>
  <style type="text/css">
   <![CDATA[
    .fil0 {fill:#434242}
   ]]>
  </style>
 </defs>
 <g id="Layer_x0020_1">
  <metadata id="CorelCorpID_0Corel-Layer"/>
  <path class="fil0" d="M4.62573 9.42986l0 0 -4.24927 0.629473 5.66872 2.03448 5.0471 -0.678627 1.55658 -6.57179 -7.01767 -0.688512 -1.00546 5.27498zm0.00879452 1.86989l-1.39167 -0.531932 0.670617 -0.0888997 1.56113 0.52111 -0.840082 0.0997224zm7.30726 -5.97341l-1.31015 5.53711 -5.61469 -1.58813 0.902121 -4.65651 6.02272 0.707533z"/>
  <path class="fil0" d="M4.08011 5.68082l-0.698108 -2.16625 -3.38201 1.09011 0.698892 2.16625 3.38122 -1.09011zm-0.927089 -1.93052l-1.03421 1.6351 -1.79466 -0.723077 2.82887 -0.912023zm-0.973107 1.82623l1.12986 -1.78476 0.576689 1.78979 -3.08831 0.996048 -0.577183 -1.79011 1.95895 0.789036z"/>
  <path class="fil0" d="M8.52885 1.55123l-2.22563 -1.55123 -0.993526 1.42621 2.22609 1.55075 0.993065 -1.42574zm-0.248769 -0.0303207l-1.47192 0.127538 -0.389805 -1.42495 1.86173 1.29741zm-2.80625 -0.123907l0.820771 -1.1776 0.426398 1.55406 1.60604 -0.13836 -0.820771 1.17806 -2.03244 -1.41616z"/>
  <path class="fil0" d="M10.3972 3.67916l-0.285055 -0.969818 -1.51464 0.445095 0.285515 0.969494 1.51418 -0.444771zm-0.388561 -0.867096l-0.477921 0.714282 -0.787775 -0.342066 1.2657 -0.372216zm-0.452952 0.798938l0.521894 -0.779151 0.235271 0.801137 -1.38207 0.406457 -0.235271 -0.801137 0.860176 0.372694z"/>
  <path class="fil0" d="M3.49305 7.93471l0.504935 -0.402997 -0.629166 -0.788729 -0.506179 0.40269 0.630411 0.789036zm-0.107256 -1.10111l0.526905 0.661191 -0.539006 -0.111823 0.012101 -0.549368zm0.531472 0.706749l-0.417621 0.33201 -0.574661 -0.71931 0.417604 -0.333749 -0.012868 0.59917 0.587546 0.121879z"/>
  <path class="fil0" d="M1.25361 3.16983l-0.628689 -0.789206 -0.506196 0.403014 0.62995 0.788729 0.504935 -0.402537zm-0.612038 -0.697324l0.526444 0.660254 -0.538068 -0.110869 0.0116238 -0.549385zm-0.0431886 -0.0146064l-0.0138224 0.59963 0.588006 0.120942 -0.417604 0.332488 -0.574201 -0.719788 0.417621 -0.333272z"/>
  <path class="fil0" d="M6.44504 3.16983l-0.629149 -0.788729 -0.506196 0.402997 0.62995 0.788729 0.505395 -0.402997zm-0.612515 -0.697324l0.526461 0.660254 -0.538068 -0.110869 0.0116067 -0.549385zm-0.0428648 -0.0146064l-0.013669 0.59963 0.587546 0.120942 -0.417604 0.332488 -0.574354 -0.719788 0.418081 -0.333272z"/>
  <path class="fil0" d="M10.782 7.28026l-1.17429 -1.05306 -0.675184 0.752614 1.17603 1.05304 0.673446 -0.752597zm-0.14119 -0.0348713l-0.858472 -0.0307808 -0.124214 -0.849814 0.982686 0.880594zm-1.61107 -0.270909l0.557702 -0.622093 0.134594 0.92755 0.937452 0.0340873 -0.557702 0.621616 -1.07205 -0.96116z"/>
  <path class="fil0" d="M8.20516 9.91893l1.28361 -0.917034 -0.587222 -0.822339 -1.28439 0.917034 0.588006 0.822339zm0.0640841 -0.130043l0.217664 -0.831918 0.856904 0.064408 -1.07457 0.76751zm1.10204 -0.833946l-0.935407 -0.07068 -0.236839 0.907932 -0.486238 -0.679411 1.17225 -0.838207 0.486238 0.680366z"/>
  <path class="fil0" d="M1.45401 8.84767l-0.782917 -0.701414 -0.449952 0.501646 0.783701 0.701875 0.449168 -0.502106zm-0.0943877 -0.0232475l-0.572616 -0.0204183 -0.082781 -0.566344 0.655397 0.586762zm-1.07378 -0.179981l0.37191 -0.413837 0.0901439 0.618003 0.624923 0.0232475 -0.371432 0.414621 -0.715544 -0.642034z"/>
  <path class="fil0" d="M12.6485 2.62909l-1.94308 -1.74109 -1.1165 1.24419 1.94386 1.74157 1.11571 -1.24466zm-0.233072 -0.0573178l-1.4204 -0.051523 -0.206365 -1.40579 1.62677 1.45732zm-2.66568 -0.448708l0.922846 -1.02807 0.223971 1.53505 1.54997 0.0560566 -0.922062 1.02887 -1.77472 -1.59191z"/>
  <path class="fil0" d="M4.08011 1.47349l-2.21651 -1.13395 -0.725429 1.41946 2.21525 1.13441 0.72669 -1.41992zm-2.71263 0.282226l1.32223 -0.29794 0.531949 1.24623 -1.85418 -0.948292zm1.38662 -0.423433l-1.44348 0.324477 0.59963 -1.17225 2.02334 1.03545 -0.5998 1.1732 -0.579689 -1.36088z"/>
  <path class="fil0" d="M8.48817 7.78849l-0.382272 -1.85372 -1.18591 0.244696 0.380704 1.85293 1.18748 -0.243912zm-0.445879 -1.75696l0.349139 1.69242 -0.981442 0.201967 0.531012 -0.991958 -0.87889 -0.701397 0.98018 -0.20103zm-0.206518 0.924567l-0.486238 0.908716 -0.319926 -1.55043 0.806165 0.641711z"/>
 </g>
</svg>
