<?xml version="1.0" encoding="UTF-8"?>
<!DOCTYPE svg PUBLIC "-//W3C//DTD SVG 1.1//EN" "http://www.w3.org/Graphics/SVG/1.1/DTD/svg11.dtd">
<!-- Creator: CorelDRAW -->
<svg xmlns="http://www.w3.org/2000/svg" xml:space="preserve" width="175px" height="241px" style="shape-rendering:geometricPrecision; text-rendering:geometricPrecision; image-rendering:optimizeQuality; fill-rule:evenodd; clip-rule:evenodd"
viewBox="0 0 8.79086 12.1171"
 xmlns:xlink="http://www.w3.org/1999/xlink">
 <defs>
  <style type="text/css">
   <![CDATA[
    .fil0 {fill:#434242}
   ]]>
  </style>
 </defs>
 <g id="Layer_x0020_1">
  <metadata id="CorelCorpID_0Corel-Layer"/>
  <path class="fil0" d="M8.78851 2.90389c-0.000685782,-0.0556512 -0.0181904,-0.110497 -0.0563542,-0.153838l-2.33648 -2.66881c-0.000462903,-0.000685782 -0.00114869,-0.000925806 -0.00183447,-0.00161159 -0.0139557,-0.0156187 -0.0299516,-0.0284428 -0.0471133,-0.0396554 -0.00510908,-0.00336033 -0.0102182,-0.00632634 -0.0155673,-0.0093095 -0.0150872,-0.00807509 -0.0306373,-0.0147272 -0.0468732,-0.0196134 -0.00437186,-0.00132013 -0.00833226,-0.00306888 -0.0127556,-0.00428614 -0.0178475,-0.00409755 -0.0359693,-0.0067721 -0.0545026,-0.0067721l-5.74183 0c-0.261952,0 -0.475196,0.213278 -0.475196,0.475179l0 11.1668c0,0.262055 0.213244,0.475162 0.475196,0.475162l7.84047 0c0.262158,0 0.475196,-0.213107 0.475196,-0.475162l0 -8.71151c0,-0.00886374 -0.00137156,-0.0177961 -0.00234881,-0.0265398zm-6.7931 8.32759l-0.206695 -0.413338c-0.0846427,-0.159324 -0.138734,-0.277879 -0.203146,-0.409875l-0.0067721 0c-0.0474047,0.131996 -0.104959,0.250551 -0.176058,0.409875l-0.189722 0.413338 -0.589224 0 0.660529 -1.15523 -0.636749 -1.12772 0.592756 0 0.199837 0.416819c0.0676867,0.1387 0.118538,0.250328 0.172834,0.379118l0.00663495 0c0.0542968,-0.145729 0.0982555,-0.247242 0.155724,-0.379118l0.193185 -0.416819 0.589224 0 -0.643504 1.11414 0.677519 1.16883 -0.596374 0 0 -1.71446e-005zm2.29938 0l-1.426 0 0 -2.28295 0.51828 0 0 1.84908 0.907719 0 0 0.433877zm0.863417 0.0336376c-0.260666,0 -0.517989,-0.067721 -0.646693,-0.138837l0.104805 -0.426711c0.13894,0.0709785 0.352424,0.142111 0.572371,0.142111 0.237229,0 0.362402,-0.0980326 0.362402,-0.247345 0,-0.141991 -0.108354,-0.223411 -0.382667,-0.321581 -0.379255,-0.131996 -0.626617,-0.341983 -0.626617,-0.674004 0,-0.389456 0.325061,-0.68748 0.863812,-0.68748 0.25722,0 0.44713,0.0540568 0.582401,0.115194l-0.115074 0.416613c-0.0915348,-0.0439758 -0.254065,-0.108457 -0.477648,-0.108457 -0.223548,0 -0.331782,0.101513 -0.331782,0.220308 0,0.145557 0.12867,0.209935 0.423316,0.321581 0.403034,0.149209 0.592585,0.359024 0.592585,0.680776 5.14337e-005,0.382769 -0.294629,0.70783 -0.921212,0.70783zm2.4723 -0.0336376l-0.206712 -0.413338c-0.0847113,-0.159324 -0.138768,-0.277879 -0.203266,-0.409875l-0.00649779 0c-0.0473361,0.131996 -0.105096,0.250551 -0.176263,0.409875l-0.18967 0.413338 -0.589293 0 0.66046 -1.15523 -0.636783 -1.12772 0.592773 0 0.200026 0.416819c0.0676524,0.1387 0.118315,0.250328 0.172509,0.379118l0.00685782 0c0.0540568,-0.145729 0.0981183,-0.247242 0.155793,-0.379118l0.193065 -0.416819 0.589327 0 -0.643487 1.11414 0.677365 1.16883 -0.596202 0 0 -1.71446e-005zm-7.1553 -3.16319l0 -7.593 5.50423 0 0 2.4313c0,0.131156 0.106279,0.237572 0.237606,0.237572l2.09863 0 0.000222879 4.92412 -7.84069 0z"/>
  <path class="fil0" d="M5.20843 3.04985l-1.85118 0 -2.08879 0 0 0.890986 0 0.118778 0 0.772157 0 0.118795 0 0.77214 0 0.118778 0 0.891037 1.97 1.71446e-005 0.118795 0 1.85118 0 0.118812 0 1.96998 0 0 -1.00983 0 -0.77214 0 -0.890951 0 -0.118778 0 -0.890986 -2.08879 0zm0 1.78195l-1.85118 0 0 -0.772157 1.85118 0 0 0.772157zm-3.82116 -1.66314l1.85118 0 0 0.772174 -1.85118 0 0 -0.772174zm0 0.890986l1.85118 0 0 0.772157 -1.85118 0 0 -0.772157zm0 0.890951l1.85118 0 0 0.77214 -1.85118 0 0 -0.77214zm0 1.66318l0 -0.772225 1.85118 0 0 0.772225 -1.85118 0zm1.96998 0l0 -0.772225 1.85118 0 0 0.772225 -1.85118 0zm3.82128 0l-1.8513 0 0 -0.772225 1.85117 0 0 0.772225 0.000137156 0zm0 -1.78197l-1.8513 0 0 -0.772157 1.85117 0 0 0.772157 0.000137156 0zm-1.85129 -0.890969l0 -0.772157 1.85117 -1.71446e-005 0 0.772174 -1.85117 0z"/>
 </g>
</svg>
