<?xml version="1.0" encoding="UTF-8"?>
<!DOCTYPE svg PUBLIC "-//W3C//DTD SVG 1.1//EN" "http://www.w3.org/Graphics/SVG/1.1/DTD/svg11.dtd">
<!-- Creator: CorelDRAW -->
<svg xmlns="http://www.w3.org/2000/svg" xml:space="preserve" width="140px" height="123px" style="shape-rendering:geometricPrecision; text-rendering:geometricPrecision; image-rendering:optimizeQuality; fill-rule:evenodd; clip-rule:evenodd"
viewBox="0 0 7.67337 6.74459"
 xmlns:xlink="http://www.w3.org/1999/xlink">
 <defs>
  <style type="text/css">
   <![CDATA[
    .fil0 {fill:#434242}
   ]]>
  </style>
 </defs>
 <g id="Layer_x0020_1">
  <metadata id="CorelCorpID_0Corel-Layer"/>
  <path class="fil0" d="M6.23943 0l-3.1249 0c-0.78431,0 -1.42604,0.647731 -1.42604,1.43204l0 0.0349303 0.576711 0.00671928 0 -0.0416495c0,-0.463406 0.385928,-0.85533 0.849334,-0.85533l3.12471 0c0.463867,0 0.821148,0.391924 0.821148,0.85533l0 1.68422c0,0.447486 -0.341374,0.812496 -0.782677,0.837055l0.00381465 0.584166c0.765586,-0.0216413 1.39185,-0.650361 1.39185,-1.42149l0 -1.68421c0.000274256,-0.784048 -0.649364,-1.43178 -1.43395,-1.43178z"/>
  <path class="fil0" d="M4.85266 1.9412l-3.79791 -0.0438311c-0.562973,-0.00673174 -1.02475,0.444395 -1.0312,1.00738l-0.0235486 2.04704c-0.00673174,0.562524 0.444669,1.02475 1.00738,1.03048l2.54046 0.0293703 1.37694 0.704751c0.0872882,0.0450029 0.192503,0.0353666 0.271439,-0.0226511 0.0789234,-0.0587407 0.117668,-0.162409 0.100303,-0.258437l-0.0743857 -0.41475 0 0c0.332723,0 0.605358,-0.257165 0.608986,-0.589987l0.0286473 -2.45871c0.007006,-0.562711 -0.44412,-1.02447 -1.00711,-1.03065zm-0.467495 2.88982l-2.91875 0c-0.160963,0 -0.291809,-0.127043 -0.291809,-0.288268 0,-0.161412 0.130671,-0.288443 0.291809,-0.288443l2.91847 0c0.161686,0 0.292357,0.12703 0.292357,0.288443 0,0.160963 -0.130671,0.288268 -0.292083,0.288268zm0 -1.15342l-2.91875 0c-0.160963,0 -0.291809,-0.126769 -0.291809,-0.288443 0,-0.161412 0.130671,-0.288455 0.291809,-0.288455l2.91847 -8.72633e-005c0.161686,0 0.292357,0.127043 0.292357,0.288443 0,0.161499 -0.130671,0.288542 -0.292083,0.288542z"/>
 </g>
</svg>
