<?xml version="1.0" encoding="UTF-8"?>
<!DOCTYPE svg PUBLIC "-//W3C//DTD SVG 1.1//EN" "http://www.w3.org/Graphics/SVG/1.1/DTD/svg11.dtd">
<!-- Creator: CorelDRAW -->
<svg xmlns="http://www.w3.org/2000/svg" xml:space="preserve" width="175px" height="129px" style="shape-rendering:geometricPrecision; text-rendering:geometricPrecision; image-rendering:optimizeQuality; fill-rule:evenodd; clip-rule:evenodd"
viewBox="0 0 13.1249 9.65483"
 xmlns:xlink="http://www.w3.org/1999/xlink">
 <defs>
  <style type="text/css">
   <![CDATA[
    .fil0 {fill:#434242}
   ]]>
  </style>
 </defs>
 <g id="Layer_x0020_1">
  <metadata id="CorelCorpID_0Corel-Layer"/>
  <path class="fil0" d="M12.2896 0l-11.4543 0 0 8.32677 11.4543 0 0 -8.32677 0 0zm-0.564068 7.47984l-2.11492 0 0 -0.349077c0,-0.422861 -0.364546,-0.942857 -0.808473,-1.15427l-1.02179 -0.48621 -0.672317 1.40086 -0.333757 -0.907001c-0.0695272,0.0134152 -0.138624,0.0307887 -0.210735,0.0307887 -0.0721274,0 -0.14192,-0.0173735 -0.210337,-0.0307887l-0.352224 0.953656 -0.686958 -1.4315 -0.989926 0.470327c-0.445004,0.211149 -0.808871,0.731427 -0.808871,1.15359l0 0.349756 -2.11478 -0.000132496 0 -6.91536 10.3264 0 0 6.91536 -0.00135808 0zm1.39936 1.18685l0 0.988005 -13.1249 0.000132496 0 -0.988005 5.90423 -0.000132496 0 0.211414 1.31711 0.000132496 0 -0.211414 5.90355 -0.000132496zm-8.51616 -4.3824c0.126302,0.489887 0.434073,0.913841 0.867865,1.19231 0.00765164,0.0829259 0.0712828,0.171599 0.172278,0.223736 0.137945,0.0712993 0.29217,0.0495369 0.343612,-0.050365 0.0517231,-0.0992063 -0.0188807,-0.23783 -0.156411,-0.309527 -0.084698,-0.0444855 -0.173371,-0.0488579 -0.243991,-0.0246442 -0.379054,-0.238923 -0.652741,-0.602508 -0.776989,-1.02426 0.126302,-0.0387385 0.218668,-0.155732 0.218668,-0.294356l0 -0.136156c0.16764,0.845821 0.787125,1.63076 1.52786,1.63076 0.740735,0 1.35954,-0.784939 1.52784,-1.63076l0 0.135742c0,0.172294 0.139717,0.309958 0.310637,0.309958 0.17092,0 0.309544,-0.138624 0.309544,-0.309958l0 -0.645901c0,-0.109326 -0.0572051,-0.205667 -0.142996,-0.261083 -0.115089,-1.00511 -0.971046,-1.78855 -2.00625,-1.78855 -1.0359,0 -1.89105,0.783564 -2.00695,1.78855 -0.0853936,0.0550024 -0.142317,0.151757 -0.142317,0.261083l0 0.645901c0.00205369,0.129316 0.0827934,0.24154 0.197601,0.287516zm1.9537 -2.78462c0.91028,0 1.66402,0.671208 1.79868,1.54495 -0.103595,0.0138127 -0.189668,0.0771789 -0.235644,0.166133 -0.0912897,-0.858838 -0.755243,-1.31315 -1.56193,-1.31315 -0.807115,0 -1.47107,0.454461 -1.56302,1.31315 -0.0332565,-0.0648733 -0.0862217,-0.11701 -0.154225,-0.145613 -0.011229,-0.0188807 -0.0275095,-0.0351611 -0.0495369,-0.0426968 -0.00972189,-0.00395831 -0.0191622,-0.00395831 -0.0279235,-0.00465392 0.144371,-0.860594 0.893453,-1.51812 1.7936,-1.51812z"/>
 </g>
</svg>
