<?xml version="1.0" encoding="UTF-8"?>
<!DOCTYPE svg PUBLIC "-//W3C//DTD SVG 1.1//EN" "http://www.w3.org/Graphics/SVG/1.1/DTD/svg11.dtd">
<!-- Creator: CorelDRAW -->
<svg xmlns="http://www.w3.org/2000/svg" xml:space="preserve" width="175px" height="159px" style="shape-rendering:geometricPrecision; text-rendering:geometricPrecision; image-rendering:optimizeQuality; fill-rule:evenodd; clip-rule:evenodd"
viewBox="0 0 14.2873 12.9577"
 xmlns:xlink="http://www.w3.org/1999/xlink">
 <defs>
  <style type="text/css">
   <![CDATA[
    .fil0 {fill:#434242}
   ]]>
  </style>
 </defs>
 <g id="Layer_x0020_1">
  <metadata id="CorelCorpID_0Corel-Layer"/>
  <path id="XMLID_150_" class="fil0" d="M2.52087 5.04127c0.0541417,0 0.104748,-0.0124118 0.157987,-0.0158532l-0.752831 -0.461248c-0.338409,-0.207202 -0.544652,-0.575117 -0.545141,-0.971448l-0.00148565 -0.877438c-0.000902675,-0.630444 0.508977,-1.14245 1.13942,-1.14335 0.000582978,0 0.00148565,0 0.00201221,0 0.629372,0 1.14042,0.50973 1.14134,1.13946l0.000526561 0.239378 1.11127 0.680711c0.166186,-0.336453 0.268113,-0.709917 0.268113,-1.11052 0,-1.3932 -1.12865,-2.52097 -2.52127,-2.52097 -1.39249,0 -2.52082,1.12776 -2.52082,2.52097 0,1.39209 1.12833,2.52031 2.52087,2.52031z"/>
  <path id="XMLID_149_" class="fil0" d="M13.8288 7.01693c-0.375457,-0.153079 -0.803644,0.0290173 -0.95661,0.404511l-1.65013 4.06764 -1.40663 0 -2.26722 0c-0.113436,0 -0.21935,0.0277009 -0.315353,0.0736057 -0.2466,0.118213 -0.418898,0.368367 -0.418898,0.660683 0,0.405621 0.328743,0.734308 0.734251,0.734308l4.16837 -1.88057e-005c0.298955,0 0.567971,-0.181156 0.680693,-0.458371l1.83615 -4.5259c0.152232,-0.375701 -0.0287164,-0.804039 -0.404624,-0.95646z"/>
  <path id="XMLID_148_" class="fil0" d="M3.0918 2.71241c-0.000526561,-0.315034 -0.256003,-0.569795 -0.570923,-0.569795 -0.000564172,0 -0.000564172,0 -0.00110954,0 -0.314827,0.000545366 -0.570359,0.256529 -0.569814,0.571751l0.0013164 0.877344c0.000545366,0.198212 0.104015,0.382076 0.272552,0.485639l2.43991 1.49491c0.0932577,0.057019 0.195918,0.0843814 0.297977,0.0843814 0.192044,0 0.379368,-0.0970752 0.487106,-0.272852 0.164851,-0.268602 0.0804321,-0.620157 -0.188208,-0.784726l-2.1684 -1.3284 -0.000413726 -0.558248z"/>
  <path id="XMLID_147_" class="fil0" d="M10.2714 9.91021c0,-0.50704 -0.411093,-0.917852 -0.918077,-0.917852l-3.31075 0 -2.26662 -2.18581 0.981942 0.617562c-0.039981,-0.985609 -0.845901,-1.77389 -1.8411,-1.77389l-0.788938 0c-1.02098,0 -1.84836,0.827471 -1.84836,1.84825l0 4.92596c0,0.294479 0.238438,0.53318 0.532898,0.53318l3.41984 0c0.294479,0 0.532898,-0.238739 0.532898,-0.53318l0 -1.08436c-0.0910386,-0.0692615 -0.175006,-0.14708 -0.239811,-0.240601l-2.02389 -2.97157 2.5333 2.44302c0.171189,0.16502 0.399998,0.257168 0.637308,0.257168l3.68128 1.88057e-005c0.506965,1.88057e-005 0.918077,-0.410811 0.918077,-0.917889z"/>
 </g>
</svg>
