<?xml version="1.0" encoding="UTF-8"?>
<!DOCTYPE svg PUBLIC "-//W3C//DTD SVG 1.1//EN" "http://www.w3.org/Graphics/SVG/1.1/DTD/svg11.dtd">
<!-- Creator: CorelDRAW -->
<svg xmlns="http://www.w3.org/2000/svg" xml:space="preserve" width="175px" height="164px" style="shape-rendering:geometricPrecision; text-rendering:geometricPrecision; image-rendering:optimizeQuality; fill-rule:evenodd; clip-rule:evenodd"
viewBox="0 0 25.7917 24.2293"
 xmlns:xlink="http://www.w3.org/1999/xlink">
 <defs>
  <style type="text/css">
   <![CDATA[
    .str0 {stroke:#FEFEFE;stroke-width:0.0254346}
    .fil0 {fill:#434242}
   ]]>
  </style>
 </defs>
 <g id="Layer_x0020_1">
  <metadata id="CorelCorpID_0Corel-Layer"/>
  <path class="fil0 str0" d="M13.6801 14.1973l-3.17733 -3.17733 6.11713 -5.13943 2.19963 2.19963 -5.13943 6.11713zm10.454 -13.7837c-0.0268032,-0.159784 -0.05384,-0.286156 -0.0788741,-0.385592 -0.0683264,0.084949 -0.152141,0.196701 -0.253879,0.343935 -0.5141,0.744113 -1.20527,1.17136 -1.99856,1.23575 -0.110117,0.00891214 -0.223037,0.013485 -0.335824,0.013485 -0.424311,0 -0.801792,-0.0633863 -1.13481,-0.119129 -0.273439,-0.0458625 -0.531624,-0.0891548 -0.770917,-0.0891548 -0.301778,0 -0.682296,0.0584129 -1.21622,0.491736 -0.947724,0.769181 -1.02343,2.31866 -1.01719,2.88827l2.4967 2.4967c0.0646213,0.00457289 0.145532,0.00811105 0.239893,0.00811105 0.673517,0 1.9827,-0.179211 3.1828,-1.37928 1.37584,-1.37601 1.19663,-3.66466 0.886875,-5.50483zm-1.20578 22.5252c-0.0350811,0.0350477 -0.0703625,0.0697283 -0.105811,0.104142 -0.723786,0.701322 -1.67825,1.08768 -2.68706,1.08768 -1.03357,0 -2.0053,-0.402348 -2.73609,-1.13314l-2.75465 -2.75462c-0.490368,-0.490401 -1.14229,-0.760402 -1.83573,-0.760402 -0.693478,0 -1.3454,0.270001 -1.83577,0.760402l-0.752892 0.752892c-0.727124,0.72709 -1.69351,1.12757 -2.72137,1.12757 -0.000133515,0 -0.000133515,0 -0.00026703,0 -0.422041,0 -0.832634,-0.0690941 -1.22016,-0.200306 1.78396,-1.59557 3.86049,-3.64406 6.19424,-5.97944l0.470941 -0.471208c0.0364496,-0.0364496 0.0713972,-0.0718979 0.107313,-0.108081l0.221001 0.220968c0.119396,0.119262 0.280916,0.185953 0.448945,0.185953 0.00914579,0 0.0184251,-0.000133515 0.0275709,-0.000634197 0.177809,-0.00774388 0.344202,-0.0896888 0.458758,-0.225941l5.86195 -6.9771c0.69982,-0.000634197 1.92402,-0.149237 3.16718,-0.99599 3.42526,5.22401 3.45751,11.6015 -0.308086,15.3673zm0.299475 -7.63894c0,-0.350678 -0.136553,-0.680226 -0.384457,-0.928164 -0.248038,-0.248038 -0.57762,-0.384457 -0.928298,-0.384457 -0.350644,0 -0.680226,0.136553 -0.928264,0.384457 -0.511864,0.51183 -0.511864,1.34463 0,1.85646 0.247904,0.247904 0.57762,0.384424 0.928264,0.384424 0.350678,0 0.68026,-0.136519 0.928164,-0.384424 0.248171,-0.248038 0.38459,-0.577754 0.38459,-0.928298zm-20.5339 3.14772c-3.56138,-5.26137 -3.64533,-11.7577 0.170065,-15.5731 1.84541,-1.84538 4.43761,-2.8617 7.29917,-2.8617 2.2484,0 4.53618,0.605692 6.66024,1.72158 -0.665006,1.03828 -0.765609,2.30898 -0.767145,2.96103l-6.90076 5.79783c-0.136252,0.114456 -0.218197,0.280816 -0.225941,0.458758 -0.00774388,0.177809 0.0595811,0.350678 0.185319,0.476516l0.220968 0.221001c-0.0360491,0.0359156 -0.0713639,0.0705961 -0.108081,0.107313 -0.376446,0.376446 -0.764708,0.762672 -1.15945,1.15551 -2.11171,2.10079 -3.93703,3.94417 -5.37439,5.53531zm7.76467 -14.061c0,0.350644 0.136519,0.680226 0.384424,0.928164 0.248071,0.248038 0.577653,0.384424 0.928298,0.384424 0.350644,0 0.68026,-0.136519 0.928164,-0.384424 0.248038,-0.248038 0.384457,-0.577653 0.384457,-0.928298 0,-0.350644 -0.136519,-0.68026 -0.384457,-0.928298 -0.247904,-0.247904 -0.577486,-0.384424 -0.928164,-0.384424 -0.350678,0 -0.680226,0.136519 -0.928164,0.384424 -0.248038,0.248171 -0.384557,0.577887 -0.384557,0.928431zm-7.06232 2.63522c0,0.426881 0.166226,0.828228 0.468138,1.13011 0.301778,0.301911 0.703224,0.468171 1.13011,0.468171 0.426848,0 0.828195,-0.16626 1.13011,-0.468171 0.301878,-0.301744 0.468138,-0.703224 0.468138,-1.13011 0,-0.426848 -0.16626,-0.828195 -0.468138,-1.13011 -0.301911,-0.301878 -0.703258,-0.468138 -1.13011,-0.468138 -0.426881,0 -0.828228,0.16626 -1.13011,0.468138 -0.301778,0.301778 -0.468138,0.703124 -0.468138,1.13011zm8.1778 8.02389l0.471342 -0.471576c0.0364496,-0.0364496 0.0713639,-0.0718979 0.107313,-0.108081l-1.91868 -1.91868c-0.036216,0.035949 -0.0713972,0.0705961 -0.108114,0.107313 -0.377314,0.377214 -0.76621,0.764207 -1.16172,1.15768 -2.2042,2.19302 -4.70254,4.67851 -6.41063,6.73197 -2.54674,3.06174 -2.04188,3.64139 -2.03644,3.64687 0.0215961,0.0220968 0.0828128,0.0254013 0.11736,0.0254013 0.413663,0 1.54644,-0.385225 4.48574,-2.96547 2.05864,-1.80706 4.39365,-4.14384 6.45382,-6.20542z"/>
 </g>
</svg>
