<?xml version="1.0" encoding="UTF-8"?>
<!DOCTYPE svg PUBLIC "-//W3C//DTD SVG 1.1//EN" "http://www.w3.org/Graphics/SVG/1.1/DTD/svg11.dtd">
<!-- Creator: CorelDRAW -->
<svg xmlns="http://www.w3.org/2000/svg" xml:space="preserve" width="175px" height="241px" style="shape-rendering:geometricPrecision; text-rendering:geometricPrecision; image-rendering:optimizeQuality; fill-rule:evenodd; clip-rule:evenodd"
viewBox="0 0 25.5117 35.1268"
 xmlns:xlink="http://www.w3.org/1999/xlink">
 <defs>
  <style type="text/css">
   <![CDATA[
    .fil0 {fill:#434242}
   ]]>
  </style>
 </defs>
 <g id="Layer_x0020_1">
  <metadata id="CorelCorpID_0Corel-Layer"/>
  <path class="fil0" d="M0.927199 23.3897c0.025937,0.0016085 0.0515055,0.00304945 0.077409,0.00304945 0.512072,0 0.946769,-0.394719 0.987049,-0.914097l0.281353 -3.62934 1.90165 -1.37051 0 5.26452c0,0.264699 0.0715782,0.51167 0.18615,0.72999l-2.13471 8.84524c-0.153712,0.639345 0.238762,1.28127 0.876732,1.43522 0.0944658,0.0224855 0.188161,0.0325386 0.280717,0.0325386 0.53687,0 1.02344,-0.365397 1.155,-0.909506l2.03411 -8.42964 2.31158 1.10236 -0.193858 3.12903c-0.0407151,0.654894 0.457048,1.22011 1.11278,1.26026 0.0255684,0.00164201 0.0503661,0.00241275 0.0751638,0.00241275 0.623059,0 1.14649,-0.485398 1.1859,-1.11559l0.244626 -3.93023c0.0293551,-0.483857 -0.236851,-0.938224 -0.675737,-1.14649l-3.28667 -1.56691 0 -3.47999 1.14954 1.37215c0.163397,0.195131 0.395657,0.319723 0.647488,0.348341l3.49534 0.396428c0.0378332,0.00378667 0.0749963,0.00626644 0.112997,0.00626644 0.496993,0 0.925792,-0.373507 0.983128,-0.879011 0.0619272,-0.543874 -0.329776,-1.03473 -0.873281,-1.09666l-3.10119 -0.351021 -2.52675 -3.0158c-0.0751638,-0.191579 -0.186251,-0.364593 -0.325621,-0.511704 -0.132467,-0.512441 -0.593704,-0.892583 -1.14723,-0.892583 -0.412211,0 -0.774492,0.209105 -0.987853,0.526817l-4.03083 2.90542c-0.236081,0.170601 -0.385973,0.436976 -0.407956,0.726807l-0.317477 4.08699c-0.0433289,0.546689 0.364995,1.02354 0.910444,1.06526z"/>
  <circle class="fil0" cx="6.79467" cy="11.4281" r="2.46054"/>
  <path class="fil0" d="M18.3836 22.3509l-2.91936 0.911282 0.672017 0.671883 -3.19173 2.56009c-0.0936951,0.0751638 -0.147848,0.188798 -0.147848,0.308932l0 3.56725 -6.00201 0.000100531c-0.218689,0 -0.396428,0.177337 -0.396428,0.39626l0 3.56738 -6.00181 0c-0.218689,0 -0.396428,0.177203 -0.396428,0.396294 0,0.219057 0.177605,0.396394 0.396428,0.396394l6.39824 0c0.218689,0 0.396428,-0.177337 0.396428,-0.396394l0 -3.56725 6.00188 0c0.218287,0 0.396394,-0.177371 0.396394,-0.396428l0 -3.7731 3.11127 -2.49589 0.771811 0.771845 0.911148 -2.91865z"/>
  <path class="fil0" d="M24.9921 0l-11.1277 0c-0.35196,0 -0.695743,0.285207 -0.768125,0.637133l-1.58172 7.69328c-0.0722149,0.351893 0.154516,0.637133 0.506175,0.637133l11.128 0c0.35196,0 0.695743,-0.285207 0.768025,-0.637133l1.58149 -7.69328c0.072483,-0.351926 -0.154148,-0.637133 -0.506108,-0.637133zm-1.3312 2.57467l-4.93839 2.38165c-0.212992,0.102877 -0.455607,0.102877 -0.626443,0l-3.95909 -2.38165c-0.287084,-0.172579 -0.326291,-0.575508 -0.0872276,-0.898112 0.160079,-0.216142 0.412077,-0.350586 0.657541,-0.350586 0.10844,0 0.211015,0.0271769 0.296567,0.0786154l3.68031 2.2141 4.59096 -2.2141c0.106396,-0.0514049 0.220163,-0.0785484 0.328838,-0.0785484 0.245397,0 0.44217,0.134343 0.513346,0.350284 0.106496,0.322739 -0.0982525,0.725802 -0.456412,0.898347z"/>
  <path class="fil0" d="M7.34367 1.68001l4.79433 0c0.253875,0 0.459495,-0.205687 0.459495,-0.459327 0,-0.253774 -0.205586,-0.459361 -0.459495,-0.459361l-4.79433 -3.35104e-005c-0.25364,0 -0.459394,0.20562 -0.459394,0.459361 0,0.253674 0.20572,0.459361 0.459394,0.459361z"/>
  <path class="fil0" d="M10.852 4.94128l-4.79447 0c-0.253774,0 -0.459461,0.20562 -0.459461,0.459293 0,0.253741 0.205653,0.459394 0.459461,0.459394l4.79447 0c0.25354,0 0.459293,-0.205586 0.459293,-0.459394 0,-0.253674 -0.205754,-0.459293 -0.459293,-0.459293z"/>
  <path class="fil0" d="M11.9543 3.28385c0,-0.253707 -0.205519,-0.459293 -0.459126,-0.459293l-2.86551 0c-0.25364,0 -0.459159,0.205586 -0.459159,0.459293 0,0.253607 0.205519,0.459293 0.459159,0.459293l2.86551 0c0.253607,0 0.459126,-0.205653 0.459126,-0.459293z"/>
  <path class="fil0" d="M10.2088 7.00441l-1.53099 0c-0.253774,0 -0.459461,0.205553 -0.459461,0.459394 0,0.253573 0.205653,0.459327 0.459461,0.459327l1.53099 0c0.253841,0 0.459461,-0.205687 0.459461,-0.459327 -3.35104e-005,-0.253741 -0.205586,-0.459394 -0.459461,-0.459394z"/>
 </g>
</svg>
