<?xml version="1.0" encoding="UTF-8"?>
<!DOCTYPE svg PUBLIC "-//W3C//DTD SVG 1.1//EN" "http://www.w3.org/Graphics/SVG/1.1/DTD/svg11.dtd">
<!-- Creator: CorelDRAW -->
<svg xmlns="http://www.w3.org/2000/svg" xml:space="preserve" width="175px" height="213px" style="shape-rendering:geometricPrecision; text-rendering:geometricPrecision; image-rendering:optimizeQuality; fill-rule:evenodd; clip-rule:evenodd"
viewBox="0 0 13.7767 16.7965"
 xmlns:xlink="http://www.w3.org/1999/xlink">
 <defs>
  <style type="text/css">
   <![CDATA[
    .str0 {stroke:#1C1B17;stroke-width:0.0138199}
    .fil0 {fill:#434242}
   ]]>
  </style>
 </defs>
 <g id="Layer_x0020_1">
  <metadata id="CorelCorpID_0Corel-Layer"/>
  <path class="fil0 str0" d="M13.7698 4.27831l0 10.897c0,0.890099 -0.724241,1.61436 -1.61441,1.61436l-7.36549 0c-0.890153,0 -1.61436,-0.724241 -1.61436,-1.61436l0 -7.08541c0.230278,0.0383041 0.465181,0.063151 0.706268,0.063151 0.170972,0 0.33877,-0.0127136 0.504501,-0.0323191l0 7.05457c0,0.222479 0.181001,0.403535 0.40359,0.403535l7.36549 1.81364e-005c0.222516,0 0.40359,-0.181092 0.40359,-0.403553l0 -10.897c0,-0.222588 -0.18111,-0.40359 -0.40359,-0.40359l-3.99527 0c0,-0.42091 -0.0632417,-0.826585 -0.176594,-1.21073l4.17186 0c0.890171,-3.62728e-005 1.61441,0.724187 1.61441,1.61432zm-9.9554 3.34352c-2.09953,0 -3.8075,-1.70798 -3.8075,-3.80741 3.62728e-005,-2.09953 1.70798,-3.8075 3.8075,-3.8075 2.09945,0 3.8075,1.70798 3.8075,3.8075 0,2.09943 -1.70805,3.80741 -3.8075,3.80741zm0 -0.807197c1.65426,0 3.00023,-1.34574 3.00023,-3.00022 0,-1.65457 -1.34576,-3.00031 -3.00023,-3.00031 -1.65453,0 -3.00031,1.34574 -3.00031,3.00031 0,1.65448 1.34598,3.00022 3.00031,3.00022zm2.2835 -2.59661c0.22277,0 0.40359,-0.180802 0.40359,-0.403571 0,-0.222788 -0.180802,-0.40359 -0.40359,-0.40359l-1.87991 1.81364e-005 0 -1.58432c0,-0.222788 -0.180802,-0.40359 -0.40359,-0.40359 -0.222788,0 -0.40359,0.180802 -0.40359,0.40359l0 1.9879c0,0.22277 0.180802,0.40359 0.40359,0.40359l2.2835 -1.81364e-005zm4.65816 3.27228l-4.37224 0c-0.22277,0 -0.403571,0.180802 -0.403571,0.40359 0,0.222806 0.180784,0.40359 0.403571,0.40359l4.37224 -1.81364e-005c0.222878,0 0.40359,-0.180802 0.40359,-0.40359 1.81364e-005,-0.22277 -0.180711,-0.403571 -0.40359,-0.403571zm0.00709134 2.44813l-4.37224 0c-0.22277,0 -0.403571,0.180711 -0.403571,0.40359 0,0.222896 0.180802,0.40359 0.403571,0.40359l4.37224 -1.81364e-005c0.222878,0 0.403553,-0.180693 0.403553,-0.403571 0,-0.222896 -0.180475,-0.40359 -0.403553,-0.40359zm0 2.54945l-4.37224 0c-0.22277,0 -0.403571,0.180893 -0.403571,0.40359 0,0.22286 0.180802,0.403535 0.403571,0.403535l4.37224 0c0.222878,0 0.403553,-0.180693 0.403553,-0.403535 3.62728e-005,-0.222715 -0.180475,-0.40359 -0.403553,-0.40359z"/>
 </g>
</svg>
